<svg xmlns="http://www.w3.org/2000/svg" xmlns:xlink="http://www.w3.org/1999/xlink" width="1080" zoomAndPan="magnify" viewBox="0 0 810 809.999993" height="1080" preserveAspectRatio="xMidYMid meet" version="1.0"><defs><clipPath id="21feee3127"><path d="M 405 0 C 181.324219 0 0 181.324219 0 405 C 0 628.675781 181.324219 810 405 810 C 628.675781 810 810 628.675781 810 405 C 810 181.324219 628.675781 0 405 0 Z M 405 0 " clip-rule="nonzero"/></clipPath></defs><g clip-path="url(#21feee3127)"><rect x="-81" width="972" fill="#000000" y="-80.999999" height="971.999992" fill-opacity="1"/></g><path fill="#ffffff" d="M 545.960938 179.523438 C 548.726562 179.523438 551.492188 179.589844 554.257812 179.726562 C 557.023438 179.863281 559.78125 180.066406 562.535156 180.335938 C 565.292969 180.609375 568.039062 180.945312 570.777344 181.351562 C 573.511719 181.757812 576.238281 182.230469 578.953125 182.773438 C 581.667969 183.3125 584.367188 183.917969 587.054688 184.589844 C 589.738281 185.261719 592.40625 186 595.054688 186.804688 C 597.703125 187.609375 600.332031 188.476562 602.9375 189.410156 C 605.542969 190.339844 608.125 191.335938 610.679688 192.394531 C 613.238281 193.457031 615.769531 194.578125 618.269531 195.761719 C 620.773438 196.945312 623.242188 198.1875 625.683594 199.492188 C 628.125 200.796875 630.535156 202.160156 632.90625 203.585938 C 635.28125 205.007812 637.621094 206.488281 639.921875 208.023438 C 642.222656 209.5625 644.484375 211.15625 646.707031 212.804688 C 648.929688 214.453125 651.113281 216.15625 653.25 217.910156 C 655.390625 219.667969 657.488281 221.476562 659.539062 223.335938 C 661.589844 225.191406 663.59375 227.101562 665.550781 229.058594 C 667.507812 231.015625 669.414062 233.019531 671.273438 235.070312 C 673.132812 237.121094 674.941406 239.214844 676.695312 241.355469 C 678.453125 243.496094 680.152344 245.675781 681.800781 247.898438 C 683.453125 250.121094 685.042969 252.386719 686.582031 254.6875 C 688.121094 256.988281 689.601562 259.324219 691.023438 261.699219 C 692.445312 264.074219 693.808594 266.480469 695.113281 268.921875 C 696.417969 271.363281 697.664062 273.835938 698.847656 276.335938 C 700.03125 278.839844 701.152344 281.367188 702.210938 283.925781 C 703.269531 286.484375 704.265625 289.066406 705.199219 291.671875 C 706.132812 294.277344 707 296.90625 707.800781 299.554688 C 708.605469 302.203125 709.34375 304.867188 710.015625 307.554688 C 710.6875 310.238281 711.296875 312.9375 711.835938 315.652344 C 712.375 318.367188 712.847656 321.09375 713.253906 323.832031 C 713.660156 326.570312 714 329.316406 714.269531 332.070312 C 714.542969 334.824219 714.746094 337.585938 714.882812 340.347656 C 715.015625 343.113281 715.085938 345.878906 715.085938 348.648438 L 715.085938 461.398438 C 715.085938 464.164062 715.015625 466.929688 714.882812 469.695312 C 714.746094 472.460938 714.542969 475.21875 714.269531 477.976562 C 714 480.730469 713.660156 483.476562 713.253906 486.214844 C 712.847656 488.949219 712.375 491.675781 711.835938 494.390625 C 711.296875 497.105469 710.6875 499.804688 710.015625 502.492188 C 709.34375 505.175781 708.605469 507.84375 707.800781 510.492188 C 707 513.140625 706.132812 515.769531 705.199219 518.375 C 704.265625 520.980469 703.269531 523.5625 702.210938 526.117188 C 701.152344 528.675781 700.03125 531.207031 698.847656 533.707031 C 697.664062 536.210938 696.417969 538.679688 695.113281 541.121094 C 693.808594 543.5625 692.445312 545.972656 691.023438 548.34375 C 689.601562 550.71875 688.121094 553.058594 686.582031 555.359375 C 685.042969 557.660156 683.453125 559.921875 681.800781 562.144531 C 680.152344 564.367188 678.453125 566.550781 676.695312 568.6875 C 674.941406 570.828125 673.132812 572.925781 671.273438 574.976562 C 669.414062 577.027344 667.507812 579.03125 665.550781 580.988281 C 663.59375 582.945312 661.589844 584.851562 659.539062 586.710938 C 657.488281 588.570312 655.390625 590.375 653.25 592.132812 C 651.113281 593.890625 648.929688 595.589844 646.707031 597.238281 C 644.484375 598.890625 642.222656 600.480469 639.921875 602.019531 C 637.621094 603.558594 635.28125 605.039062 632.90625 606.460938 C 630.535156 607.882812 628.125 609.246094 625.683594 610.550781 C 623.242188 611.855469 620.773438 613.101562 618.269531 614.285156 C 615.769531 615.46875 613.238281 616.589844 610.679688 617.648438 C 608.125 618.707031 605.542969 619.703125 602.9375 620.636719 C 600.332031 621.570312 597.703125 622.4375 595.054688 623.238281 C 592.40625 624.042969 589.738281 624.78125 587.054688 625.453125 C 584.367188 626.125 581.667969 626.734375 578.953125 627.273438 C 576.238281 627.8125 573.511719 628.285156 570.777344 628.691406 C 568.039062 629.097656 565.292969 629.4375 562.535156 629.707031 C 559.78125 629.980469 557.023438 630.183594 554.257812 630.320312 C 551.492188 630.453125 548.726562 630.523438 545.960938 630.523438 L 264.085938 630.523438 C 261.316406 630.523438 258.550781 630.453125 255.785156 630.320312 C 253.023438 630.183594 250.261719 629.980469 247.507812 629.707031 C 244.753906 629.4375 242.007812 629.097656 239.269531 628.691406 C 236.53125 628.285156 233.804688 627.8125 231.089844 627.273438 C 228.375 626.734375 225.675781 626.125 222.992188 625.453125 C 220.304688 624.78125 217.640625 624.042969 214.992188 623.238281 C 212.34375 622.4375 209.714844 621.570312 207.109375 620.636719 C 204.503906 619.703125 201.921875 618.707031 199.363281 617.648438 C 196.804688 616.589844 194.277344 615.46875 191.773438 614.285156 C 189.273438 613.101562 186.800781 611.855469 184.359375 610.550781 C 181.917969 609.246094 179.511719 607.882812 177.136719 606.460938 C 174.761719 605.039062 172.425781 603.558594 170.125 602.019531 C 167.824219 600.480469 165.558594 598.890625 163.335938 597.238281 C 161.113281 595.589844 158.933594 593.890625 156.792969 592.132812 C 154.652344 590.375 152.558594 588.570312 150.507812 586.710938 C 148.457031 584.851562 146.453125 582.945312 144.496094 580.988281 C 142.539062 579.03125 140.628906 577.027344 138.773438 574.976562 C 136.914062 572.925781 135.105469 570.828125 133.347656 568.6875 C 131.59375 566.550781 129.890625 564.367188 128.242188 562.144531 C 126.59375 559.921875 125 557.660156 123.460938 555.359375 C 121.925781 553.058594 120.445312 550.71875 119.023438 548.34375 C 117.597656 545.972656 116.234375 543.5625 114.929688 541.121094 C 113.625 538.679688 112.382812 536.210938 111.199219 533.707031 C 110.015625 531.207031 108.894531 528.675781 107.832031 526.117188 C 106.773438 523.5625 105.777344 520.980469 104.847656 518.375 C 103.914062 515.769531 103.046875 513.140625 102.242188 510.492188 C 101.4375 507.84375 100.699219 505.175781 100.027344 502.492188 C 99.355469 499.804688 98.75 497.105469 98.210938 494.390625 C 97.667969 491.675781 97.195312 488.953125 96.789062 486.214844 C 96.382812 483.476562 96.046875 480.730469 95.773438 477.976562 C 95.503906 475.21875 95.300781 472.460938 95.164062 469.695312 C 95.027344 466.929688 94.960938 464.164062 94.960938 461.398438 L 94.960938 348.648438 C 94.960938 345.878906 95.027344 343.113281 95.164062 340.347656 C 95.300781 337.585938 95.503906 334.824219 95.773438 332.070312 C 96.046875 329.316406 96.382812 326.570312 96.789062 323.832031 C 97.195312 321.09375 97.667969 318.367188 98.210938 315.652344 C 98.75 312.9375 99.355469 310.238281 100.027344 307.554688 C 100.699219 304.867188 101.4375 302.203125 102.242188 299.554688 C 103.046875 296.90625 103.914062 294.277344 104.847656 291.671875 C 105.777344 289.066406 106.773438 286.484375 107.832031 283.925781 C 108.894531 281.367188 110.015625 278.839844 111.199219 276.335938 C 112.382812 273.835938 113.625 271.363281 114.929688 268.921875 C 116.234375 266.480469 117.597656 264.074219 119.023438 261.699219 C 120.445312 259.324219 121.925781 256.988281 123.460938 254.6875 C 125 252.386719 126.59375 250.121094 128.242188 247.898438 C 129.890625 245.675781 131.59375 243.496094 133.347656 241.355469 C 135.105469 239.214844 136.914062 237.121094 138.773438 235.070312 C 140.628906 233.019531 142.539062 231.015625 144.496094 229.058594 C 146.453125 227.101562 148.457031 225.191406 150.507812 223.335938 C 152.558594 221.476562 154.652344 219.667969 156.792969 217.910156 C 158.933594 216.15625 161.113281 214.453125 163.335938 212.804688 C 165.558594 211.15625 167.824219 209.5625 170.125 208.023438 C 172.425781 206.488281 174.761719 205.007812 177.136719 203.585938 C 179.511719 202.160156 181.917969 200.796875 184.359375 199.492188 C 186.800781 198.1875 189.273438 196.945312 191.773438 195.761719 C 194.277344 194.578125 196.804688 193.457031 199.363281 192.394531 C 201.921875 191.335938 204.503906 190.339844 207.109375 189.410156 C 209.714844 188.476562 212.34375 187.609375 214.992188 186.804688 C 217.640625 186 220.304688 185.261719 222.992188 184.589844 C 225.675781 183.917969 228.375 183.3125 231.089844 182.773438 C 233.804688 182.230469 236.53125 181.757812 239.269531 181.351562 C 242.007812 180.945312 244.753906 180.609375 247.507812 180.335938 C 250.261719 180.066406 253.023438 179.863281 255.785156 179.726562 C 258.550781 179.589844 261.316406 179.523438 264.085938 179.523438 Z M 545.960938 235.898438 L 264.085938 235.898438 C 262.296875 235.898438 260.511719 235.941406 258.730469 236.023438 C 256.945312 236.109375 255.164062 236.238281 253.382812 236.40625 C 251.605469 236.574219 249.832031 236.789062 248.0625 237.042969 C 246.296875 237.296875 244.535156 237.589844 242.78125 237.929688 C 241.027344 238.265625 239.28125 238.644531 237.542969 239.066406 C 235.808594 239.484375 234.082031 239.949219 232.367188 240.449219 C 230.65625 240.953125 228.953125 241.496094 227.265625 242.078125 C 225.574219 242.664062 223.902344 243.285156 222.242188 243.949219 C 220.585938 244.613281 218.941406 245.3125 217.316406 246.054688 C 215.691406 246.796875 214.085938 247.574219 212.496094 248.390625 C 210.90625 249.210938 209.339844 250.0625 207.792969 250.957031 C 206.242188 251.847656 204.71875 252.777344 203.214844 253.742188 C 201.710938 254.707031 200.230469 255.703125 198.773438 256.738281 C 197.316406 257.773438 195.886719 258.84375 194.480469 259.945312 C 193.074219 261.050781 191.699219 262.183594 190.347656 263.351562 C 188.996094 264.519531 187.671875 265.722656 186.378906 266.953125 C 185.082031 268.183594 183.820312 269.445312 182.585938 270.734375 C 181.347656 272.027344 180.144531 273.347656 178.976562 274.695312 C 177.804688 276.042969 176.664062 277.421875 175.558594 278.824219 C 174.453125 280.226562 173.378906 281.652344 172.339844 283.105469 C 171.300781 284.5625 170.296875 286.039062 169.332031 287.539062 C 168.363281 289.039062 167.429688 290.5625 166.535156 292.109375 C 165.640625 293.65625 164.78125 295.222656 163.957031 296.808594 C 163.136719 298.394531 162.355469 300 161.609375 301.625 C 160.863281 303.246094 160.15625 304.886719 159.492188 306.542969 C 158.824219 308.203125 158.195312 309.875 157.609375 311.5625 C 157.019531 313.25 156.472656 314.949219 155.96875 316.660156 C 155.460938 318.375 154.996094 320.097656 154.570312 321.832031 C 154.144531 323.570312 153.761719 325.3125 153.417969 327.066406 C 153.078125 328.820312 152.777344 330.582031 152.519531 332.347656 C 152.261719 334.117188 152.042969 335.890625 151.871094 337.667969 C 151.695312 339.445312 151.566406 341.226562 151.476562 343.011719 L 151.335938 348.648438 L 151.335938 461.398438 C 151.335938 463.183594 151.378906 464.96875 151.460938 466.753906 C 151.546875 468.539062 151.675781 470.320312 151.84375 472.097656 C 152.011719 473.875 152.226562 475.648438 152.480469 477.417969 C 152.734375 479.1875 153.027344 480.949219 153.367188 482.703125 C 153.703125 484.457031 154.082031 486.203125 154.503906 487.9375 C 154.921875 489.675781 155.386719 491.398438 155.886719 493.113281 C 156.390625 494.828125 156.933594 496.53125 157.515625 498.21875 C 158.101562 499.90625 158.722656 501.582031 159.386719 503.238281 C 160.050781 504.898438 160.75 506.539062 161.492188 508.164062 C 162.234375 509.792969 163.011719 511.398438 163.828125 512.988281 C 164.648438 514.574219 165.5 516.144531 166.394531 517.691406 C 167.285156 519.238281 168.214844 520.765625 169.179688 522.269531 C 170.144531 523.773438 171.140625 525.253906 172.175781 526.707031 C 173.210938 528.164062 174.28125 529.59375 175.382812 531 C 176.488281 532.40625 177.621094 533.785156 178.789062 535.136719 C 179.957031 536.488281 181.160156 537.8125 182.390625 539.105469 C 183.621094 540.398438 184.882812 541.664062 186.171875 542.898438 C 187.464844 544.132812 188.785156 545.335938 190.132812 546.507812 C 191.480469 547.679688 192.859375 548.820312 194.261719 549.925781 C 195.664062 551.03125 197.089844 552.101562 198.542969 553.140625 C 200 554.179688 201.476562 555.183594 202.976562 556.152344 C 204.476562 557.121094 206 558.050781 207.546875 558.949219 C 209.09375 559.84375 210.660156 560.703125 212.246094 561.523438 C 213.832031 562.34375 215.4375 563.128906 217.0625 563.875 C 218.683594 564.617188 220.324219 565.324219 221.980469 565.992188 C 223.640625 566.660156 225.3125 567.285156 227 567.875 C 228.6875 568.460938 230.386719 569.007812 232.097656 569.515625 C 233.8125 570.023438 235.535156 570.488281 237.269531 570.914062 C 239.007812 571.335938 240.75 571.722656 242.503906 572.0625 C 244.257812 572.40625 246.019531 572.703125 247.785156 572.964844 C 249.554688 573.222656 251.328125 573.4375 253.105469 573.613281 C 254.882812 573.785156 256.664062 573.917969 258.449219 574.007812 L 264.085938 574.148438 L 545.960938 574.148438 C 547.746094 574.148438 549.53125 574.105469 551.316406 574.019531 C 553.101562 573.933594 554.882812 573.808594 556.660156 573.636719 C 558.4375 573.46875 560.210938 573.257812 561.980469 573.003906 C 563.75 572.75 565.511719 572.453125 567.265625 572.117188 C 569.019531 571.777344 570.765625 571.398438 572.5 570.980469 C 574.238281 570.558594 575.960938 570.097656 577.675781 569.59375 C 579.390625 569.09375 581.09375 568.550781 582.78125 567.964844 C 584.46875 567.382812 586.144531 566.757812 587.800781 566.097656 C 589.460938 565.433594 591.101562 564.730469 592.726562 563.992188 C 594.355469 563.25 595.960938 562.46875 597.550781 561.652344 C 599.136719 560.835938 600.707031 559.980469 602.253906 559.089844 C 603.800781 558.195312 605.328125 557.269531 606.832031 556.304688 C 608.335938 555.339844 609.816406 554.339844 611.269531 553.304688 C 612.726562 552.269531 614.15625 551.203125 615.5625 550.097656 C 616.96875 548.996094 618.347656 547.859375 619.699219 546.691406 C 621.050781 545.523438 622.375 544.324219 623.667969 543.09375 C 624.960938 541.863281 626.226562 540.601562 627.460938 539.308594 C 628.695312 538.015625 629.898438 536.699219 631.070312 535.347656 C 632.242188 534 633.382812 532.625 634.488281 531.222656 C 635.59375 529.820312 636.667969 528.390625 637.703125 526.9375 C 638.742188 525.484375 639.746094 524.007812 640.714844 522.503906 C 641.683594 521.003906 642.613281 519.480469 643.511719 517.933594 C 644.40625 516.390625 645.265625 514.824219 646.085938 513.238281 C 646.90625 511.652344 647.691406 510.046875 648.4375 508.421875 C 649.179688 506.796875 649.886719 505.15625 650.554688 503.5 C 651.222656 501.84375 651.847656 500.171875 652.4375 498.484375 C 653.023438 496.796875 653.570312 495.097656 654.078125 493.382812 C 654.585938 491.671875 655.050781 489.945312 655.476562 488.210938 C 655.898438 486.476562 656.285156 484.730469 656.625 482.976562 C 656.96875 481.226562 657.265625 479.464844 657.527344 477.695312 C 657.785156 475.929688 658 474.15625 658.175781 472.378906 C 658.347656 470.601562 658.480469 468.820312 658.570312 467.035156 L 658.710938 461.398438 L 658.710938 348.648438 C 658.710938 346.859375 658.667969 345.074219 658.582031 343.292969 C 658.496094 341.507812 658.371094 339.726562 658.199219 337.945312 C 658.03125 336.167969 657.820312 334.394531 657.566406 332.625 C 657.3125 330.859375 657.015625 329.097656 656.679688 327.34375 C 656.339844 325.589844 655.960938 323.84375 655.542969 322.105469 C 655.121094 320.371094 654.660156 318.644531 654.15625 316.929688 C 653.65625 315.21875 653.113281 313.515625 652.527344 311.828125 C 651.945312 310.136719 651.320312 308.464844 650.660156 306.804688 C 649.996094 305.148438 649.292969 303.503906 648.554688 301.878906 C 647.8125 300.253906 647.03125 298.648438 646.214844 297.058594 C 645.398438 295.46875 644.542969 293.902344 643.652344 292.355469 C 642.757812 290.804688 641.832031 289.28125 640.867188 287.777344 C 639.902344 286.273438 638.902344 284.792969 637.867188 283.335938 C 636.832031 281.878906 635.765625 280.449219 634.660156 279.042969 C 633.558594 277.636719 632.421875 276.261719 631.253906 274.910156 C 630.085938 273.558594 628.886719 272.234375 627.65625 270.941406 C 626.425781 269.644531 625.164062 268.382812 623.871094 267.148438 C 622.578125 265.914062 621.261719 264.710938 619.910156 263.539062 C 618.5625 262.367188 617.1875 261.226562 615.785156 260.121094 C 614.382812 259.015625 612.953125 257.941406 611.5 256.902344 C 610.046875 255.863281 608.570312 254.859375 607.066406 253.894531 C 605.566406 252.925781 604.042969 251.992188 602.496094 251.097656 C 600.953125 250.203125 599.386719 249.34375 597.800781 248.519531 C 596.214844 247.699219 594.609375 246.917969 592.984375 246.171875 C 591.359375 245.425781 589.71875 244.71875 588.0625 244.054688 C 586.40625 243.386719 584.734375 242.757812 583.046875 242.171875 C 581.359375 241.582031 579.660156 241.035156 577.945312 240.53125 C 576.234375 240.023438 574.507812 239.558594 572.773438 239.132812 C 571.039062 238.707031 569.292969 238.324219 567.539062 237.980469 C 565.789062 237.640625 564.027344 237.339844 562.257812 237.082031 C 560.492188 236.824219 558.71875 236.605469 556.941406 236.433594 C 555.164062 236.257812 553.382812 236.128906 551.597656 236.039062 Z M 348.648438 320.460938 L 348.648438 376.835938 L 405.023438 376.835938 L 405.023438 433.210938 L 348.621094 433.210938 L 348.648438 489.585938 L 292.273438 489.585938 L 292.246094 433.210938 L 235.898438 433.210938 L 235.898438 376.835938 L 292.273438 376.835938 L 292.273438 320.460938 Z M 574.148438 433.210938 L 574.148438 489.585938 L 517.773438 489.585938 L 517.773438 433.210938 Z M 517.773438 320.460938 L 517.773438 376.835938 L 461.398438 376.835938 L 461.398438 320.460938 Z M 517.773438 320.460938 " fill-opacity="1" fill-rule="nonzero"/></svg>